M48
; DRILL file {KiCad 7.0.2} date Mon May 22 18:24:20 2023
; FORMAT={-:-/ absolute / inch / decimal}
; #@! TF.CreationDate,2023-05-22T18:24:20+02:00
; #@! TF.GenerationSoftware,Kicad,Pcbnew,7.0.2
; #@! TF.FileFunction,Plated,1,2,PTH
FMAT,2
INCH
; #@! TA.AperFunction,Plated,PTH,ViaDrill
T1C0.0157
; #@! TA.AperFunction,Plated,PTH,ComponentDrill
T2C0.0295
; #@! TA.AperFunction,Plated,PTH,ComponentDrill
T3C0.0303
; #@! TA.AperFunction,Plated,PTH,ComponentDrill
T4C0.0315
; #@! TA.AperFunction,Plated,PTH,ComponentDrill
T5C0.0394
; #@! TA.AperFunction,Plated,PTH,ComponentDrill
T6C0.0480
; #@! TA.AperFunction,Plated,PTH,ComponentDrill
T7C0.0512
; #@! TA.AperFunction,Plated,PTH,ComponentDrill
T8C0.0559
; #@! TA.AperFunction,Plated,PTH,ComponentDrill
T9C0.0563
%
G90
G05
T1
X4.7669Y-3.9083
X5.1843Y-2.3217
X5.2079Y-5.3453
X5.4362Y-3.8689
X5.7669Y-5.1012
X6.0268Y-3.235
X6.0819Y-4.9161
X6.0898Y-5.0382
X6.1291Y-4.3177
X6.2591Y-4.0657
X6.6803Y-4.5343
X6.6961Y-4.3768
X6.7591Y-3.8374
T2
X4.4268Y-4.7587
X4.4268Y-4.9358
X4.4768Y-4.7587
X4.4768Y-4.9358
X4.5268Y-4.7587
X4.5268Y-4.9358
T3
X4.4244Y-3.9815
X4.4244Y-4.2941
X4.5244Y-3.9815
X4.5244Y-4.2941
X4.6244Y-3.9815
X4.6244Y-4.2941
X4.7244Y-3.9815
X4.7244Y-4.2941
X4.8244Y-3.9815
X4.8244Y-4.2941
X4.9244Y-3.9815
X4.9244Y-4.2941
X5.0244Y-3.9815
X5.0244Y-4.2941
X5.3268Y-3.9803
X5.3268Y-4.2929
X5.4268Y-3.9803
X5.4268Y-4.2929
X5.5268Y-3.9803
X5.5268Y-4.2929
X5.6268Y-3.9803
X5.6268Y-4.2929
X5.7268Y-3.9803
X5.7268Y-4.2929
X5.8268Y-3.9803
X5.8268Y-4.2929
X5.9268Y-3.9803
X5.9268Y-4.2929
X6.2094Y-3.9815
X6.2094Y-4.2941
X6.3094Y-3.9815
X6.3094Y-4.2941
X6.4094Y-3.9815
X6.4094Y-4.2941
X6.5094Y-3.9815
X6.5094Y-4.2941
X6.6094Y-3.9815
X6.6094Y-4.2941
X6.7094Y-3.9815
X6.7094Y-4.2941
X6.8094Y-3.9815
X6.8094Y-4.2941
T4
X4.5228Y-4.4122
X4.8228Y-4.4122
X5.015Y-1.6957
X5.115Y-1.5957
X5.215Y-1.6957
X6.8457Y-2.7866
X6.8457Y-3.0866
X6.8457Y-3.1953
X6.8457Y-3.4953
T5
X6.3142Y-1.8421
X6.3142Y-1.9421
X6.3142Y-2.0421
X6.3142Y-2.1421
X6.3142Y-2.2421
X6.3142Y-2.3421
X6.3142Y-2.4421
X6.3142Y-2.5421
X6.4142Y-1.8421
X6.4142Y-1.9421
X6.4142Y-2.0421
X6.4142Y-2.1421
X6.4142Y-2.2421
X6.4142Y-2.3421
X6.4142Y-2.4421
X6.4142Y-2.5421
T6
X4.9539Y-5.1839
X4.9559Y-4.5343
X5.389Y-5.1839
X5.8201Y-5.1839
X5.822Y-4.5343
X6.2551Y-4.5343
X6.2551Y-5.1839
T7
X4.5819Y-2.6996
X4.5819Y-3.7193
X4.7787Y-2.6996
X4.7787Y-3.7193
X4.9756Y-2.6996
X4.9756Y-3.7193
X5.4087Y-2.6996
X5.4087Y-3.7193
X5.6055Y-2.6996
X5.6055Y-3.7193
X5.8024Y-2.6996
X5.8024Y-3.7193
X6.2354Y-3.7193
X6.4323Y-3.7193
X6.6291Y-3.7193
T8
X4.9539Y-5.3059
X4.9559Y-4.6563
X5.389Y-5.3059
X5.8201Y-5.3059
X5.822Y-4.6563
X6.2551Y-4.6563
X6.2551Y-5.3059
T9
X4.9539Y-5.6327
X4.9559Y-4.9831
X5.389Y-5.6327
X5.8201Y-5.6327
X5.822Y-4.9831
X6.2551Y-4.9831
X6.2551Y-5.6327
T0
M30
