%TF.GenerationSoftware,KiCad,Pcbnew,7.0.2*%
%TF.CreationDate,2023-05-22T18:24:12+02:00*%
%TF.ProjectId,VCO_EURORACK,56434f5f-4555-4524-9f52-41434b2e6b69,rev?*%
%TF.SameCoordinates,Original*%
%TF.FileFunction,Soldermask,Bot*%
%TF.FilePolarity,Negative*%
%FSLAX46Y46*%
G04 Gerber Fmt 4.6, Leading zero omitted, Abs format (unit mm)*
G04 Created by KiCad (PCBNEW 7.0.2) date 2023-05-22 18:24:12*
%MOMM*%
%LPD*%
G01*
G04 APERTURE LIST*
G04 Aperture macros list*
%AMRoundRect*
0 Rectangle with rounded corners*
0 $1 Rounding radius*
0 $2 $3 $4 $5 $6 $7 $8 $9 X,Y pos of 4 corners*
0 Add a 4 corners polygon primitive as box body*
4,1,4,$2,$3,$4,$5,$6,$7,$8,$9,$2,$3,0*
0 Add four circle primitives for the rounded corners*
1,1,$1+$1,$2,$3*
1,1,$1+$1,$4,$5*
1,1,$1+$1,$6,$7*
1,1,$1+$1,$8,$9*
0 Add four rect primitives between the rounded corners*
20,1,$1+$1,$2,$3,$4,$5,0*
20,1,$1+$1,$4,$5,$6,$7,0*
20,1,$1+$1,$6,$7,$8,$9,0*
20,1,$1+$1,$8,$9,$2,$3,0*%
G04 Aperture macros list end*
%ADD10RoundRect,0.250000X0.625000X-0.400000X0.625000X0.400000X-0.625000X0.400000X-0.625000X-0.400000X0*%
%ADD11RoundRect,0.250000X-0.625000X0.400000X-0.625000X-0.400000X0.625000X-0.400000X0.625000X0.400000X0*%
%ADD12RoundRect,0.250000X0.400000X0.625000X-0.400000X0.625000X-0.400000X-0.625000X0.400000X-0.625000X0*%
%ADD13RoundRect,0.250000X-0.400000X-0.625000X0.400000X-0.625000X0.400000X0.625000X-0.400000X0.625000X0*%
%ADD14RoundRect,0.250000X0.412500X0.650000X-0.412500X0.650000X-0.412500X-0.650000X0.412500X-0.650000X0*%
%ADD15RoundRect,0.250000X0.650000X-0.412500X0.650000X0.412500X-0.650000X0.412500X-0.650000X-0.412500X0*%
%ADD16RoundRect,0.250000X-0.650000X0.412500X-0.650000X-0.412500X0.650000X-0.412500X0.650000X0.412500X0*%
%ADD17C,2.340000*%
%ADD18C,3.200000*%
%ADD19R,1.930000X1.830000*%
%ADD20C,2.130000*%
%ADD21C,1.440000*%
%ADD22R,1.600000X1.600000*%
%ADD23O,1.600000X1.600000*%
%ADD24RoundRect,0.250000X-0.600000X-0.600000X0.600000X-0.600000X0.600000X0.600000X-0.600000X0.600000X0*%
%ADD25C,1.700000*%
%ADD26R,1.170000X1.170000*%
%ADD27C,1.170000*%
%ADD28R,1.050000X1.500000*%
%ADD29O,1.050000X1.500000*%
G04 APERTURE END LIST*
D10*
%TO.C,TH4*%
X134580000Y-124620000D03*
X134580000Y-121520000D03*
%TD*%
D11*
%TO.C,TH3*%
X121380000Y-85620000D03*
X121380000Y-88720000D03*
%TD*%
D10*
%TO.C,TH2*%
X142380000Y-56620000D03*
X142380000Y-53520000D03*
%TD*%
D11*
%TO.C,TH1*%
X111480000Y-59120000D03*
X111480000Y-62220000D03*
%TD*%
%TO.C,R29*%
X151880000Y-139970000D03*
X151880000Y-143070000D03*
%TD*%
D10*
%TO.C,R28*%
X151880000Y-129070000D03*
X151880000Y-125970000D03*
%TD*%
D12*
%TO.C,R27*%
X163430000Y-112570000D03*
X160330000Y-112570000D03*
%TD*%
D10*
%TO.C,R26*%
X165780000Y-119120000D03*
X165780000Y-116020000D03*
%TD*%
D11*
%TO.C,R25*%
X168380000Y-85420000D03*
X168380000Y-88520000D03*
%TD*%
%TO.C,R24*%
X168380000Y-76020000D03*
X168380000Y-79120000D03*
%TD*%
%TO.C,R23*%
X173880000Y-94720000D03*
X173880000Y-91620000D03*
%TD*%
%TO.C,R22*%
X141080000Y-139970000D03*
X141080000Y-143070000D03*
%TD*%
D12*
%TO.C,R21*%
X174630000Y-112570000D03*
X171530000Y-112570000D03*
%TD*%
D11*
%TO.C,R20*%
X154080000Y-111320000D03*
X154080000Y-114420000D03*
%TD*%
%TO.C,R19*%
X158380000Y-85420000D03*
X158380000Y-88520000D03*
%TD*%
D10*
%TO.C,R18*%
X163380000Y-88520000D03*
X163380000Y-85420000D03*
%TD*%
%TO.C,R17*%
X142380000Y-88520000D03*
X142380000Y-85420000D03*
%TD*%
D11*
%TO.C,R16*%
X129980000Y-139970000D03*
X129980000Y-143070000D03*
%TD*%
D10*
%TO.C,R15*%
X135480000Y-114820000D03*
X135480000Y-111720000D03*
%TD*%
%TO.C,R14*%
X140380000Y-114820000D03*
X140380000Y-111720000D03*
%TD*%
D11*
%TO.C,R13*%
X118980000Y-139970000D03*
X118980000Y-143070000D03*
%TD*%
D13*
%TO.C,R12*%
X150530000Y-97770000D03*
X153630000Y-97770000D03*
%TD*%
D11*
%TO.C,R11*%
X153580000Y-90320000D03*
X153580000Y-93420000D03*
%TD*%
%TO.C,R10*%
X137480000Y-79120000D03*
X137480000Y-82220000D03*
%TD*%
D12*
%TO.C,R9*%
X118030000Y-132070000D03*
X114930000Y-132070000D03*
%TD*%
D11*
%TO.C,R8*%
X142380000Y-47970000D03*
X142380000Y-51070000D03*
%TD*%
D10*
%TO.C,R7*%
X142380000Y-62220000D03*
X142380000Y-59120000D03*
%TD*%
%TO.C,R6*%
X121380000Y-62220000D03*
X121380000Y-59120000D03*
%TD*%
%TO.C,R5*%
X140880000Y-126520000D03*
X140880000Y-123420000D03*
%TD*%
%TO.C,R4*%
X126980000Y-88720000D03*
X126980000Y-85620000D03*
%TD*%
%TO.C,R3*%
X137380000Y-62220000D03*
X137380000Y-59120000D03*
%TD*%
%TO.C,R2*%
X116380000Y-62220000D03*
X116380000Y-59120000D03*
%TD*%
D11*
%TO.C,R1*%
X126380000Y-59120000D03*
X126380000Y-62220000D03*
%TD*%
D14*
%TO.C,C3*%
X168942500Y-112570000D03*
X165817500Y-112570000D03*
%TD*%
D15*
%TO.C,C2*%
X137480000Y-85407500D03*
X137480000Y-88532500D03*
%TD*%
D16*
%TO.C,C1*%
X111380000Y-112370000D03*
X111380000Y-115495000D03*
%TD*%
D17*
%TO.C,RV5*%
X147380000Y-94470000D03*
X142380000Y-94470000D03*
X137380000Y-94470000D03*
%TD*%
D18*
%TO.C,REF\u002A\u002A*%
X173380000Y-141570000D03*
%TD*%
D19*
%TO.C,J3*%
X147880000Y-115170000D03*
D20*
X147880000Y-126570000D03*
X147880000Y-118270000D03*
%TD*%
D19*
%TO.C,J7*%
X147830000Y-131670000D03*
D20*
X147830000Y-143070000D03*
X147830000Y-134770000D03*
%TD*%
D18*
%TO.C,REF\u002A\u002A*%
X173380000Y-41570000D03*
%TD*%
D17*
%TO.C,RV6*%
X168380000Y-94470000D03*
X163380000Y-94470000D03*
X158380000Y-94470000D03*
%TD*%
%TO.C,RV1*%
X126380000Y-68570000D03*
X121380000Y-68570000D03*
X116380000Y-68570000D03*
%TD*%
D18*
%TO.C,REF\u002A\u002A*%
X112380000Y-41570000D03*
%TD*%
D19*
%TO.C,J4*%
X125830000Y-131670000D03*
D20*
X125830000Y-143070000D03*
X125830000Y-134770000D03*
%TD*%
D19*
%TO.C,J2*%
X125880000Y-115170000D03*
D20*
X125880000Y-126570000D03*
X125880000Y-118270000D03*
%TD*%
D17*
%TO.C,RV2*%
X147380000Y-68570000D03*
X142380000Y-68570000D03*
X137380000Y-68570000D03*
%TD*%
D19*
%TO.C,J8*%
X158880000Y-131670000D03*
D20*
X158880000Y-143070000D03*
X158880000Y-134770000D03*
%TD*%
D18*
%TO.C,REF\u002A\u002A*%
X112380000Y-141570000D03*
%TD*%
D17*
%TO.C,RV3*%
X126380000Y-94470000D03*
X121380000Y-94470000D03*
X116380000Y-94470000D03*
%TD*%
D19*
%TO.C,J6*%
X158880000Y-115170000D03*
D20*
X158880000Y-126570000D03*
X158880000Y-118270000D03*
%TD*%
D19*
%TO.C,J5*%
X136880000Y-131670000D03*
D20*
X136880000Y-143070000D03*
X136880000Y-134770000D03*
%TD*%
D21*
%TO.C,RV4*%
X132460000Y-43070000D03*
X129920000Y-40530000D03*
X127380000Y-43070000D03*
%TD*%
D22*
%TO.C,D2*%
X173880000Y-78400000D03*
D23*
X173880000Y-70780000D03*
%TD*%
D24*
%TO.C,J1*%
X160380000Y-64570000D03*
D25*
X162920000Y-64570000D03*
X160380000Y-62030000D03*
X162920000Y-62030000D03*
X160380000Y-59490000D03*
X162920000Y-59490000D03*
X160380000Y-56950000D03*
X162920000Y-56950000D03*
X160380000Y-54410000D03*
X162920000Y-54410000D03*
X160380000Y-51870000D03*
X162920000Y-51870000D03*
X160380000Y-49330000D03*
X162920000Y-49330000D03*
X160380000Y-46790000D03*
X162920000Y-46790000D03*
%TD*%
D26*
%TO.C,U1*%
X112380000Y-101130000D03*
D27*
X114920000Y-101130000D03*
X117460000Y-101130000D03*
X120000000Y-101130000D03*
X122540000Y-101130000D03*
X125080000Y-101130000D03*
X127620000Y-101130000D03*
X127620000Y-109070000D03*
X125080000Y-109070000D03*
X122540000Y-109070000D03*
X120000000Y-109070000D03*
X117460000Y-109070000D03*
X114920000Y-109070000D03*
X112380000Y-109070000D03*
%TD*%
D28*
%TO.C,Q2*%
X114980000Y-120870000D03*
D29*
X113710000Y-120870000D03*
X112440000Y-120870000D03*
%TD*%
D22*
%TO.C,D3*%
X173880000Y-81160000D03*
D23*
X173880000Y-88780000D03*
%TD*%
D26*
%TO.C,U2*%
X135300000Y-101100000D03*
D27*
X137840000Y-101100000D03*
X140380000Y-101100000D03*
X142920000Y-101100000D03*
X145460000Y-101100000D03*
X148000000Y-101100000D03*
X150540000Y-101100000D03*
X150540000Y-109040000D03*
X148000000Y-109040000D03*
X145460000Y-109040000D03*
X142920000Y-109040000D03*
X140380000Y-109040000D03*
X137840000Y-109040000D03*
X135300000Y-109040000D03*
%TD*%
D26*
%TO.C,U3*%
X157720000Y-101130000D03*
D27*
X160260000Y-101130000D03*
X162800000Y-101130000D03*
X165340000Y-101130000D03*
X167880000Y-101130000D03*
X170420000Y-101130000D03*
X172960000Y-101130000D03*
X172960000Y-109070000D03*
X170420000Y-109070000D03*
X167880000Y-109070000D03*
X165340000Y-109070000D03*
X162800000Y-109070000D03*
X160260000Y-109070000D03*
X157720000Y-109070000D03*
%TD*%
D22*
%TO.C,D1*%
X114880000Y-112070000D03*
D23*
X122500000Y-112070000D03*
%TD*%
D28*
%TO.C,Q1*%
X112440000Y-125370000D03*
D29*
X113710000Y-125370000D03*
X114980000Y-125370000D03*
%TD*%
M02*
