%TF.GenerationSoftware,KiCad,Pcbnew,7.0.2*%
%TF.CreationDate,2023-05-22T18:24:12+02:00*%
%TF.ProjectId,VCO_EURORACK,56434f5f-4555-4524-9f52-41434b2e6b69,rev?*%
%TF.SameCoordinates,Original*%
%TF.FileFunction,Paste,Bot*%
%TF.FilePolarity,Positive*%
%FSLAX46Y46*%
G04 Gerber Fmt 4.6, Leading zero omitted, Abs format (unit mm)*
G04 Created by KiCad (PCBNEW 7.0.2) date 2023-05-22 18:24:12*
%MOMM*%
%LPD*%
G01*
G04 APERTURE LIST*
G04 Aperture macros list*
%AMRoundRect*
0 Rectangle with rounded corners*
0 $1 Rounding radius*
0 $2 $3 $4 $5 $6 $7 $8 $9 X,Y pos of 4 corners*
0 Add a 4 corners polygon primitive as box body*
4,1,4,$2,$3,$4,$5,$6,$7,$8,$9,$2,$3,0*
0 Add four circle primitives for the rounded corners*
1,1,$1+$1,$2,$3*
1,1,$1+$1,$4,$5*
1,1,$1+$1,$6,$7*
1,1,$1+$1,$8,$9*
0 Add four rect primitives between the rounded corners*
20,1,$1+$1,$2,$3,$4,$5,0*
20,1,$1+$1,$4,$5,$6,$7,0*
20,1,$1+$1,$6,$7,$8,$9,0*
20,1,$1+$1,$8,$9,$2,$3,0*%
G04 Aperture macros list end*
%ADD10RoundRect,0.250000X0.625000X-0.400000X0.625000X0.400000X-0.625000X0.400000X-0.625000X-0.400000X0*%
%ADD11RoundRect,0.250000X-0.625000X0.400000X-0.625000X-0.400000X0.625000X-0.400000X0.625000X0.400000X0*%
%ADD12RoundRect,0.250000X0.400000X0.625000X-0.400000X0.625000X-0.400000X-0.625000X0.400000X-0.625000X0*%
%ADD13RoundRect,0.250000X-0.400000X-0.625000X0.400000X-0.625000X0.400000X0.625000X-0.400000X0.625000X0*%
%ADD14RoundRect,0.250000X0.412500X0.650000X-0.412500X0.650000X-0.412500X-0.650000X0.412500X-0.650000X0*%
%ADD15RoundRect,0.250000X0.650000X-0.412500X0.650000X0.412500X-0.650000X0.412500X-0.650000X-0.412500X0*%
%ADD16RoundRect,0.250000X-0.650000X0.412500X-0.650000X-0.412500X0.650000X-0.412500X0.650000X0.412500X0*%
G04 APERTURE END LIST*
D10*
%TO.C,TH4*%
X134580000Y-124620000D03*
X134580000Y-121520000D03*
%TD*%
D11*
%TO.C,TH3*%
X121380000Y-85620000D03*
X121380000Y-88720000D03*
%TD*%
D10*
%TO.C,TH2*%
X142380000Y-56620000D03*
X142380000Y-53520000D03*
%TD*%
D11*
%TO.C,TH1*%
X111480000Y-59120000D03*
X111480000Y-62220000D03*
%TD*%
%TO.C,R29*%
X151880000Y-139970000D03*
X151880000Y-143070000D03*
%TD*%
D10*
%TO.C,R28*%
X151880000Y-129070000D03*
X151880000Y-125970000D03*
%TD*%
D12*
%TO.C,R27*%
X163430000Y-112570000D03*
X160330000Y-112570000D03*
%TD*%
D10*
%TO.C,R26*%
X165780000Y-119120000D03*
X165780000Y-116020000D03*
%TD*%
D11*
%TO.C,R25*%
X168380000Y-85420000D03*
X168380000Y-88520000D03*
%TD*%
%TO.C,R24*%
X168380000Y-76020000D03*
X168380000Y-79120000D03*
%TD*%
%TO.C,R23*%
X173880000Y-94720000D03*
X173880000Y-91620000D03*
%TD*%
%TO.C,R22*%
X141080000Y-139970000D03*
X141080000Y-143070000D03*
%TD*%
D12*
%TO.C,R21*%
X174630000Y-112570000D03*
X171530000Y-112570000D03*
%TD*%
D11*
%TO.C,R20*%
X154080000Y-111320000D03*
X154080000Y-114420000D03*
%TD*%
%TO.C,R19*%
X158380000Y-85420000D03*
X158380000Y-88520000D03*
%TD*%
D10*
%TO.C,R18*%
X163380000Y-88520000D03*
X163380000Y-85420000D03*
%TD*%
%TO.C,R17*%
X142380000Y-88520000D03*
X142380000Y-85420000D03*
%TD*%
D11*
%TO.C,R16*%
X129980000Y-139970000D03*
X129980000Y-143070000D03*
%TD*%
D10*
%TO.C,R15*%
X135480000Y-114820000D03*
X135480000Y-111720000D03*
%TD*%
%TO.C,R14*%
X140380000Y-114820000D03*
X140380000Y-111720000D03*
%TD*%
D11*
%TO.C,R13*%
X118980000Y-139970000D03*
X118980000Y-143070000D03*
%TD*%
D13*
%TO.C,R12*%
X150530000Y-97770000D03*
X153630000Y-97770000D03*
%TD*%
D11*
%TO.C,R11*%
X153580000Y-90320000D03*
X153580000Y-93420000D03*
%TD*%
%TO.C,R10*%
X137480000Y-79120000D03*
X137480000Y-82220000D03*
%TD*%
D12*
%TO.C,R9*%
X118030000Y-132070000D03*
X114930000Y-132070000D03*
%TD*%
D11*
%TO.C,R8*%
X142380000Y-47970000D03*
X142380000Y-51070000D03*
%TD*%
D10*
%TO.C,R7*%
X142380000Y-62220000D03*
X142380000Y-59120000D03*
%TD*%
%TO.C,R6*%
X121380000Y-62220000D03*
X121380000Y-59120000D03*
%TD*%
%TO.C,R5*%
X140880000Y-126520000D03*
X140880000Y-123420000D03*
%TD*%
%TO.C,R4*%
X126980000Y-88720000D03*
X126980000Y-85620000D03*
%TD*%
%TO.C,R3*%
X137380000Y-62220000D03*
X137380000Y-59120000D03*
%TD*%
%TO.C,R2*%
X116380000Y-62220000D03*
X116380000Y-59120000D03*
%TD*%
D11*
%TO.C,R1*%
X126380000Y-59120000D03*
X126380000Y-62220000D03*
%TD*%
D14*
%TO.C,C3*%
X168942500Y-112570000D03*
X165817500Y-112570000D03*
%TD*%
D15*
%TO.C,C2*%
X137480000Y-85407500D03*
X137480000Y-88532500D03*
%TD*%
D16*
%TO.C,C1*%
X111380000Y-112370000D03*
X111380000Y-115495000D03*
%TD*%
M02*
